<?xml version="1.0" encoding="UTF-8" standalone="no"?>
<!-- Created with Inkscape (http://www.inkscape.org/) -->

<svg
   width="109.28756mm"
   height="158.92706mm"
   viewBox="0 0 109.28756 158.92706"
   version="1.1"
   id="svg5"
   xml:space="preserve"
   inkscape:version="1.2.2 (732a01da63, 2022-12-09)"
   sodipodi:docname="cahirLogo.svg"
   xmlns:inkscape="http://www.inkscape.org/namespaces/inkscape"
   xmlns:sodipodi="http://sodipodi.sourceforge.net/DTD/sodipodi-0.dtd"
   xmlns="http://www.w3.org/2000/svg"
   xmlns:svg="http://www.w3.org/2000/svg"><sodipodi:namedview
     id="namedview7"
     pagecolor="#505050"
     bordercolor="#ffffff"
     borderopacity="1"
     inkscape:showpageshadow="0"
     inkscape:pageopacity="0"
     inkscape:pagecheckerboard="1"
     inkscape:deskcolor="#505050"
     inkscape:document-units="mm"
     showgrid="false"
     inkscape:zoom="0.74564394"
     inkscape:cx="193.12167"
     inkscape:cy="276.27127"
     inkscape:window-width="1920"
     inkscape:window-height="1017"
     inkscape:window-x="-8"
     inkscape:window-y="-8"
     inkscape:window-maximized="1"
     inkscape:current-layer="layer1" /><defs
     id="defs2" /><g
     inkscape:label="Layer 1"
     inkscape:groupmode="layer"
     id="layer1"
     transform="translate(141.10579,2.289741)"><g
       id="g367"
       transform="translate(-162.87097,31.225808)"
       inkscape:export-filename="Cahir.svg"
       inkscape:export-xdpi="96"
       inkscape:export-ydpi="96"><path
         style="fill:#fdd360;stroke-width:0.264583"
         d="m 75.184581,124.91494 -0.967267,-0.36005 -1.164619,-0.68251 -1.164616,-0.68251 -1.132964,-1.22912 -1.132967,-1.22913 -0.696471,-1.50154 -0.696471,-1.50155 -0.0011,-2.51354 -0.0011,-2.51355 0.704469,-4.6302 0.704466,-4.63021 0.149368,-2.64584 0.149368,-2.645828 0.255376,-2.778125 0.255373,-2.778125 0.0089,-2.053405 0.0089,-2.053405 0.55967,-1.190648 0.559671,-1.190649 1.335251,-1.200505 1.335251,-1.200507 0.530749,0.07894 0.530747,0.07893 0.02172,3.620466 0.02172,3.620465 0.773949,0.808011 0.773948,0.808009 0.884108,0.165859 0.884105,0.165859 0.809837,-0.335444 0.809836,-0.335444 0.442524,-0.673523 0.442526,-0.673523 0.132292,-3.497686 0.132291,-3.497686 0.186116,-0.185602 0.186116,-0.185603 0.68045,0.170781 0.68045,0.170783 1.036204,0.936146 1.036203,0.936149 0.543333,1.122378 0.543335,1.122379 0.01794,0.646736 0.01794,0.64674 0.384059,5.953125 0.384061,5.953122 0.263996,3.12374 0.263999,3.12374 0.687863,3.49084 0.687864,3.49085 -0.266517,1.76777 -0.26652,1.76778 -0.672809,1.46961 -0.672809,1.46961 -1.342792,1.34279 -1.34279,1.34279 -1.51784,0.69085 -1.517838,0.69085 -2.645833,0.0897 -2.645833,0.0897 -0.967269,-0.36005 z m 4.691506,-7.02637 1.078405,-0.48979 0.471911,-0.99447 0.471908,-0.99448 -0.148609,-0.91577 -0.148608,-0.91577 -0.679143,-0.8904 -0.679143,-0.8904 -0.919261,-0.17246 -0.91926,-0.17245 -0.705252,0.17701 -0.705252,0.177 -0.883986,0.88399 -0.883989,0.88399 v 1.32907 1.32908 l 0.683395,0.81217 0.683397,0.81217 0.837957,0.2426 0.837959,0.2426 0.264584,0.018 0.264583,0.0181 z M 82.369558,99.736861 V 95.63582 h -0.275297 -0.275299 l -0.782293,0.578376 -0.782296,0.578374 -1.522095,0.102886 -1.522095,0.102883 -1.244632,-0.639127 -1.244629,-0.639128 -0.121068,0.315498 -0.121068,0.315497 0.148191,3.743411 0.14819,3.74341 h 3.797194 3.797197 z M 44.092172,96.677257 41.93041,96.467884 39.461964,95.62272 l -2.468446,-0.845163 -1.5875,-0.792689 -1.5875,-0.792689 -1.606134,-1.138897 -1.606137,-1.138893 -1.491348,-1.610834 -1.491348,-1.610833 -1.207563,-1.692249 -1.207564,-1.692248 -1.03397,-2.207556 -1.033971,-2.207557 -0.609446,-1.984374 -0.609444,-1.984375 -0.0782,-30.928846 -0.07821,-30.928843 0.399672,-2.315961 0.399669,-2.3159615 0.82283,-2.2740037 0.822831,-2.2740063 1.266695,-2.1075834 1.266695,-2.1075861 1.305108,-1.56191736 1.30511,-1.56191734 1.309579,-1.160645 1.309581,-1.1606424 1.319657,-0.9603157 1.319657,-0.9603158 1.852084,-0.9207182 1.852083,-0.9207182 1.719791,-0.5579533 1.719792,-0.5579506 1.304163,-0.284734 1.30416,-0.2847341 4.635352,-0.129217 4.635351,-0.129217 0.807361,-0.637961 0.807362,-0.637958 3.487113,-3.255978 3.487116,-3.255978 7.830084,-7.540625 7.830087,-7.540625 0.379986,-0.0835 0.379987,-0.0835 3.913229,3.639172 3.91323,3.639172 6.746875,6.376066 6.746874,6.376064 1.528393,1.424236 1.52839,1.424234 -0.0944,0.285694 -0.0945,0.285695 -3.021437,0.1322912 -3.021435,0.1322916 -0.06766,22.3425482 -0.06766,22.342548 0.239554,0.239554 0.239554,0.239553 6.904234,-0.194326 6.90423,-0.194325 0.0676,-22.520068 0.0676,-22.520067 9.77192,-0.06946 9.77192,-0.06946 0.21205,0.3340391 0.21204,0.3340391 0.004,52.7356198 0.004,52.735621 -0.27389,0.511773 -0.27389,0.511773 -9.44955,-0.004 -9.44954,-0.004 -0.329,-0.208931 -0.329,-0.20893 -0.0679,-19.432328 -0.0679,-19.432337 -7.0776,-0.07047 -7.077605,-0.07047 v 19.398281 19.398278 l -0.3175,0.3175 -0.3175,0.3175 h -2.306693 -2.306696 l -0.418512,-0.1606 -0.418515,-0.160599 V 91.694436 86.75125 l -0.405583,-1.557136 -0.405582,-1.557134 -0.704779,-1.294913 -0.704781,-1.294913 -1.62461,-1.519746 -1.624613,-1.519742 -1.22282,-0.574794 -1.222819,-0.574795 -1.135436,-0.261908 -1.135435,-0.261911 -2.002499,-0.0065 -2.002499,-0.0065 -1.437084,0.426381 -1.437085,0.426384 -1.190625,0.61327 -1.190624,0.61327 -1.149279,1.131533 -1.149278,1.131535 -0.729975,1.069959 -0.729972,1.069959 -0.620226,1.5875 -0.620228,1.5875 -0.105103,5.291439 -0.105106,5.291436 -0.305832,0.194614 -0.305835,0.194615 -9.524999,-0.032 -9.525,-0.032 L 44.09198,96.67728 Z M 61.931507,43.224978 61.86435,9.5995525 l -7.659949,0.034486 -7.659951,0.034488 -1.071298,0.4738925 -1.071301,0.473893 -0.827389,0.942358 -0.827389,0.942356 -0.436232,1.152295 -0.436231,1.152295 0.073,28.70729 0.073,28.70729 0.661459,1.297541 0.661458,1.29754 0.856954,0.684509 0.856953,0.684509 0.862838,0.312925 0.862838,0.312925 7.607781,0.02013 7.607779,0.02013 -0.06715,-33.625426 z m 22.730162,27.135528 0.572321,-0.371337 0.166211,-0.756751 0.166211,-0.756751 -0.263702,-0.693586 -0.2637,-0.693584 -0.710096,-0.465273 -0.710094,-0.465272 -5.426028,0.007 -5.426027,0.007 -0.650986,0.756819 -0.650989,0.75682 0.140423,1.046935 0.140422,1.046935 0.425821,0.426617 0.42582,0.426619 1.909577,0.173154 1.90958,0.173154 3.836458,-0.123582 3.836458,-0.123579 0.57232,-0.371337 z m -2.449922,-10.157901 2.355731,-0.206026 0.356248,-0.487198 0.356248,-0.487199 V 57.923135 56.824087 L 84.75571,56.349634 84.231444,55.875181 81.91144,55.645234 79.591433,55.41529 l -3.42211,0.17087 -3.42211,0.170871 -0.612786,0.612785 -0.612785,0.612786 v 0.686625 0.686623 l 0.401687,0.776777 0.401688,0.77678 0.5905,0.134165 0.590499,0.134167 1.5875,0.08422 1.5875,0.08422 1.5875,0.03123 1.5875,0.03122 z m -0.307599,-10.315334 2.312712,-0.20261 0.531558,-0.481052 0.531556,-0.481052 v -1.10861 -1.108609 L 84.75571,46.030884 84.231444,45.556431 81.91144,45.326484 79.591433,45.09654 l -3.386984,0.168929 -3.386982,0.168928 -0.581768,0.471086 -0.581766,0.471085 v 1.204552 1.204553 l 0.459055,0.459055 0.459055,0.459055 2.054486,0.171923 2.054487,0.171924 1.455209,0.02111 1.455208,0.02114 2.312715,-0.20261 z m 2.539904,-10.766689 0.60474,-0.423577 0.255823,-0.67287 0.255825,-0.672867 -0.279524,-0.846968 -0.279524,-0.846968 -0.681532,-0.364744 -0.681533,-0.364747 -5.232352,0.0076 -5.232349,0.0076 -0.689499,0.451776 -0.689502,0.451779 -0.16965,0.675947 -0.169651,0.675947 0.240535,0.838702 0.240538,0.838703 0.652518,0.330187 0.652518,0.330186 5.29894,0.0039 5.298942,0.0039 0.604737,-0.423574 z m 0.24419,-10.482209 0.382275,-0.317262 0.244962,-0.644295 0.244961,-0.644297 -0.284022,-0.860594 -0.284022,-0.860595 -0.716105,-0.271634 -0.716108,-0.271635 -2.352321,-0.169399 -2.35232,-0.1694 -3.056633,0.18823 -3.056636,0.18823 -0.610314,0.610314 -0.610317,0.610317 v 0.8875 0.887497 l 0.375308,0.513591 0.375312,0.513591 1.807501,0.176114 1.807503,0.176115 4.209349,-0.112565 4.209349,-0.112561 z m 0.03355,-10.393174 0.51643,-0.529167 0.05134,-0.529166 0.05135,-0.529167 -0.03047,-0.595313 -0.03047,-0.595312 -0.488966,-0.488966 -0.488966,-0.488966 -2.977353,-0.188396 -2.977351,-0.1884 -2.80298,0.187762 -2.802979,0.187759 -0.609868,0.60987 -0.609869,0.609867 v 0.823172 0.823169 l 0.281879,0.526698 0.281879,0.526695 0.536138,0.198332 0.536136,0.198329 5.523844,-0.01482 5.52384,-0.01482 z M 84.221641,7.9809508 84.883099,7.6463799 85.231868,6.9190033 85.580636,6.1916294 85.276823,5.2710699 84.973013,4.3505131 84.398888,4.030362 83.824766,3.7102135 l -5.513012,-0.00855 -5.513014,-0.00855 -0.638548,0.7423573 -0.63855,0.7423599 0.0084,0.84514 0.0084,0.8451426 0.322313,0.4160811 0.322315,0.4160811 0.529167,0.303477 0.529166,0.3034771 5.159375,0.00415 5.159375,0.00415 0.661458,-0.3345735 z"
         id="path379"
         sodipodi:nodetypes="ccccccccccccccccccccccccccccccccccccccccccccccccccccccccccccccccccccccccccccccccccccccccccccccccccccccccccccccccccccccccccccccccccccccccccccccccccccccccccccccccccccccccccccccccccccccccccccccccccccccccccccccccccccccccccccccccccccccccccccccccccccccccccccccccccccccccccccccccccccccccccccccccccccccccccccccccccccccccccccccccccccccccccccccccccccccccccccccccccccccccccccccccccccccccccccccccccccccccccccccccccccccc" /><path
         style="fill:#fdd35d;stroke-width:0.264583"
         d="m 68.925677,119.23018 -0.696471,-1.50155 -0.0011,-2.51354 -0.0011,-2.51355 0.704469,-4.6302 0.704466,-4.63021 0.149368,-2.64584 0.149368,-2.645828 0.255376,-2.778125 0.255373,-2.778125 0.0089,-2.053405 0.0089,-2.053405 0.55967,-1.190648 0.559671,-1.190649 1.335251,-1.200505 1.335251,-1.200507 0.530749,0.07894 0.530747,0.07893 0.02172,3.620466 0.02172,3.620465 0.773949,0.808011 0.773948,0.808009 0.884108,0.165859 0.884105,0.165859 0.809837,-0.335444 0.809836,-0.335444 0.442524,-0.673523 0.442526,-0.673523 0.132292,-3.497686 0.132291,-3.497686 0.186116,-0.185602 0.186116,-0.185603 0.68045,0.170781 0.68045,0.170783 1.036204,0.936146 1.036203,0.936149 0.543333,1.122378 0.543335,1.122379 0.01794,0.646736 0.01794,0.64674 0.384059,5.953125 0.384061,5.953122 0.263996,3.12374 0.263999,3.12374 0.687863,3.49084 0.687864,3.49085 -0.266517,1.76777 -0.26652,1.76778 -0.672809,1.46961 c -3.797289,8.04861 -15.206333,7.66016 -18.911827,-0.32861 z m 10.95041,-1.34151 1.078405,-0.48979 0.471911,-0.99447 0.471908,-0.99448 -0.148609,-0.91577 -0.148608,-0.91577 -0.679143,-0.8904 -0.679143,-0.8904 -0.919261,-0.17246 -0.91926,-0.17245 -0.705252,0.17701 -0.705252,0.177 -0.883986,0.88399 -0.883989,0.88399 v 1.32907 1.32908 l 0.683395,0.81217 0.683397,0.81217 0.837957,0.2426 0.837959,0.2426 0.264584,0.018 0.264583,0.0181 z M 82.369558,99.736861 V 95.63582 h -0.275297 -0.275299 l -0.782293,0.578376 -0.782296,0.578374 -1.522095,0.102886 -1.522095,0.102883 -1.244632,-0.639127 -1.244629,-0.639128 -0.121068,0.315498 -0.121068,0.315497 0.148191,3.743411 0.14819,3.74341 h 3.797194 3.797197 z M 44.092172,96.677257 41.93041,96.467884 39.461964,95.62272 l -2.468446,-0.845163 -1.5875,-0.792689 -1.5875,-0.792689 -1.606134,-1.138897 -1.606137,-1.138893 -1.491348,-1.610834 -1.491348,-1.610833 -1.207563,-1.692249 -1.207564,-1.692248 -1.03397,-2.207556 -1.033971,-2.207557 -0.609446,-1.984374 -0.609444,-1.984375 -0.0782,-30.928846 -0.07821,-30.928843 0.399672,-2.315961 0.399669,-2.3159615 0.82283,-2.2740037 0.822831,-2.2740063 1.266695,-2.1075834 1.266695,-2.1075861 1.305108,-1.56191736 1.30511,-1.56191734 1.309579,-1.160645 1.309581,-1.1606424 1.319657,-0.9603157 1.319657,-0.9603158 1.852084,-0.9207182 1.852083,-0.9207182 1.719791,-0.5579533 1.719792,-0.5579506 1.304163,-0.284734 1.30416,-0.2847341 4.635352,-0.129217 4.635351,-0.129217 0.807361,-0.637961 0.807362,-0.637958 3.487113,-3.255978 3.487116,-3.255978 7.830084,-7.540625 7.830087,-7.540625 0.379986,-0.0835 0.379987,-0.0835 3.913229,3.639172 3.91323,3.639172 6.746875,6.376066 6.746874,6.376064 1.528393,1.424236 1.52839,1.424234 -0.0944,0.285694 -0.0945,0.285695 -3.021437,0.1322912 -3.021435,0.1322916 -0.06766,22.3425482 -0.06766,22.342548 0.239554,0.239554 0.239554,0.239553 6.904234,-0.194326 6.90423,-0.194325 0.0676,-22.520068 0.0676,-22.520067 9.77192,-0.06946 9.77192,-0.06946 0.21205,0.3340391 0.21204,0.3340391 0.004,52.7356198 0.004,52.735621 -0.27389,0.511773 -0.27389,0.511773 -9.44955,-0.004 -9.44954,-0.004 -0.329,-0.208931 -0.329,-0.20893 -0.0679,-19.432328 -0.0679,-19.432337 -7.0776,-0.07047 -7.077605,-0.07047 v 19.398281 19.398278 l -0.3175,0.3175 -0.3175,0.3175 h -2.306693 -2.306696 l -0.418512,-0.1606 -0.418515,-0.160599 V 91.694436 86.75125 l -0.405583,-1.557136 -0.405582,-1.557134 -0.704779,-1.294913 -0.704781,-1.294913 -1.62461,-1.519746 -1.624613,-1.519742 -1.22282,-0.574794 -1.222819,-0.574795 -1.135436,-0.261908 -1.135435,-0.261911 -2.002499,-0.0065 -2.002499,-0.0065 -1.437084,0.426381 -1.437085,0.426384 -1.190625,0.61327 -1.190624,0.61327 -1.149279,1.131533 -1.149278,1.131535 -0.729975,1.069959 -0.729972,1.069959 -0.620226,1.5875 -0.620228,1.5875 -0.105103,5.291439 -0.105106,5.291436 -0.305832,0.194614 -0.305835,0.194615 -9.524999,-0.032 -9.525,-0.032 L 44.09198,96.67728 Z M 61.931507,43.224978 61.86435,9.5995525 l -7.659949,0.034486 -7.659951,0.034488 -1.071298,0.4738925 -1.071301,0.473893 -0.827389,0.942358 -0.827389,0.942356 -0.436232,1.152295 -0.436231,1.152295 0.073,28.70729 0.073,28.70729 0.661459,1.297541 0.661458,1.29754 0.856954,0.684509 0.856953,0.684509 0.862838,0.312925 0.862838,0.312925 7.607781,0.02013 7.607779,0.02013 -0.06715,-33.625426 z m 22.730162,27.135528 0.572321,-0.371337 0.166211,-0.756751 0.166211,-0.756751 -0.263702,-0.693586 -0.2637,-0.693584 -0.710096,-0.465273 -0.710094,-0.465272 -5.426028,0.007 -5.426027,0.007 -0.650986,0.756819 -0.650989,0.75682 0.140423,1.046935 0.140422,1.046935 0.425821,0.426617 0.42582,0.426619 1.909577,0.173154 1.90958,0.173154 3.836458,-0.123582 3.836458,-0.123579 0.57232,-0.371337 z m -2.449922,-10.157901 2.355731,-0.206026 0.356248,-0.487198 0.356248,-0.487199 V 57.923135 56.824087 L 84.75571,56.349634 84.231444,55.875181 81.91144,55.645234 79.591433,55.41529 l -3.42211,0.17087 -3.42211,0.170871 -0.612786,0.612785 -0.612785,0.612786 v 0.686625 0.686623 l 0.401687,0.776777 0.401688,0.77678 0.5905,0.134165 0.590499,0.134167 1.5875,0.08422 1.5875,0.08422 1.5875,0.03123 1.5875,0.03122 z m -0.307599,-10.315334 2.312712,-0.20261 0.531558,-0.481052 0.531556,-0.481052 v -1.10861 -1.108609 L 84.75571,46.030884 84.231444,45.556431 81.91144,45.326484 79.591433,45.09654 l -3.386984,0.168929 -3.386982,0.168928 -0.581768,0.471086 -0.581766,0.471085 v 1.204552 1.204553 l 0.459055,0.459055 0.459055,0.459055 2.054486,0.171923 2.054487,0.171924 1.455209,0.02111 1.455208,0.02114 2.312715,-0.20261 z m 2.539904,-10.766689 0.60474,-0.423577 0.255823,-0.67287 0.255825,-0.672867 -0.279524,-0.846968 -0.279524,-0.846968 -0.681532,-0.364744 -0.681533,-0.364747 -5.232352,0.0076 -5.232349,0.0076 -0.689499,0.451776 -0.689502,0.451779 -0.16965,0.675947 -0.169651,0.675947 0.240535,0.838702 0.240538,0.838703 0.652518,0.330187 0.652518,0.330186 5.29894,0.0039 5.298942,0.0039 0.604737,-0.423574 z m 0.24419,-10.482209 0.382275,-0.317262 0.244962,-0.644295 0.244961,-0.644297 -0.284022,-0.860594 -0.284022,-0.860595 -0.716105,-0.271634 -0.716108,-0.271635 -2.352321,-0.169399 -2.35232,-0.1694 -3.056633,0.18823 -3.056636,0.18823 -0.610314,0.610314 -0.610317,0.610317 v 0.8875 0.887497 l 0.375308,0.513591 0.375312,0.513591 1.807501,0.176114 1.807503,0.176115 4.209349,-0.112565 4.209349,-0.112561 z m 0.03355,-10.393174 0.51643,-0.529167 0.05134,-0.529166 0.05135,-0.529167 -0.03047,-0.595313 -0.03047,-0.595312 -0.488966,-0.488966 -0.488966,-0.488966 -2.977353,-0.188396 -2.977351,-0.1884 -2.80298,0.187762 -2.802979,0.187759 -0.609868,0.60987 -0.609869,0.609867 v 0.823172 0.823169 l 0.281879,0.526698 0.281879,0.526695 0.536138,0.198332 0.536136,0.198329 5.523844,-0.01482 5.52384,-0.01482 z M 84.221641,7.9809508 84.883099,7.6463799 85.231868,6.9190033 85.580636,6.1916294 85.278709,5.2767876 84.976785,4.3619458 84.665358,4.1608624 84.353933,3.9597818 l -1.5875,-0.1333342 -1.5875,-0.1333314 -0.08235,-0.5785035 -0.08234,-0.5785009 0.389141,-1.1412907 0.389139,-1.1412881 0.557538,-1.4101127 0.557537,-1.4101127 1.019985,-1.5003038 1.019987,-1.5003038 1.571448,-1.5291382 1.571448,-1.5291381 0.976002,-0.6632125 0.976006,-0.6632125 -0.0037,-0.1888997 -0.0037,-0.188899 -5.707306,-5.423958 -5.707308,-5.423958 -0.175951,-0.05987 -0.175953,-0.05986 -5.762246,5.652691 -5.762244,5.6526925 1.132036,0.6715998 1.132038,0.6716024 1.768364,1.8053631 1.768361,1.8053658 1.046609,1.9843749 1.04661,1.9843749 0.577763,1.77910323 0.577762,1.77910327 -0.08544,0.6021466 -0.08542,0.6021467 -1.512324,0.079081 -1.512326,0.079079 -0.538195,0.6842046 -0.538196,0.6842071 0.0084,0.8242141 0.0084,0.8242141 0.322313,0.4160811 0.322315,0.4160811 0.529167,0.303477 0.529166,0.3034771 5.159375,0.00415 5.159375,0.00415 0.661458,-0.3345735 z M 76.977977,1.7615018 77.143982,0.87661614 76.669285,0.96194955 76.194588,1.047283 75.747857,-0.43864342 75.301124,-1.9245725 74.280425,-3.4813516 73.259729,-5.0381334 73.117545,-5.1704251 72.975363,-5.3027167 72.212519,-6.4271958 71.449675,-7.5516749 h -0.308988 -0.308991 l -0.897554,-0.9260417 -0.897554,-0.9260416 h -0.312576 -0.312577 l -0.33556,-0.4043256 -0.335563,-0.4043282 1.711579,-1.646193 1.711579,-1.646195 0.90669,-0.834744 0.90669,-0.834747 2.116666,-2.140572 2.116667,-2.140574 0.619725,-0.0013 0.619726,-0.0013 0.672727,0.529167 0.672727,0.529166 h 0.320185 0.320186 l 0.461732,0.510207 0.46173,0.510204 -0.173969,0.548129 -0.173971,0.548127 h -0.511337 -0.511336 v 0.396875 0.396875 h 0.396875 0.396875 v -0.206576 -0.206576 l 0.839618,-0.316921 0.839615,-0.316921 0.35101,0.291309 0.351007,0.291312 v 0.364477 0.364479 h -0.762892 -0.762892 l -0.130212,0.497938 -0.130214,0.49794 -2.776927,0.102794 -2.776929,0.102793 -0.431008,0.357706 -0.431009,0.357706 0.004,2.679581 0.004,2.6795833 0.212167,0.3342375 0.212169,0.3342376 4.068585,0.084764 4.068588,0.084765 0.10583,0.3174973 0.105834,0.3174974 -0.294161,0.3544437 -0.294164,0.3544438 0.14964,0.3899535 0.149638,0.3899534 -0.806532,1.554517 -0.806532,1.5545143 v 0.3389842 0.3389841 L 81.311216,-0.2126046 80.78205,0.77470394 V 1.6385182 2.5023325 l -0.198438,0.026469 -0.198437,0.026472 -1.786607,0.045476 -1.786604,0.045477 0.166005,-0.884883 z m 3.027724,-0.062069 0.511773,-0.273894 V 1.1702666 0.9149913 h -0.661458 -0.661458 v 0.5291666 0.5291667 h 0.149685 0.149686 z m 2.099273,-6.488599 v -0.3812593 h -0.396875 -0.396875 v 0.3527769 0.3527795 l 0.169196,0.1691958 0.169196,0.1691957 0.227679,-0.1407133 0.227679,-0.1407134 z M 73.902891,-5.0381334 V -5.1704251 H 73.7706 73.638308 v 0.1322917 0.1322917 h 0.132292 0.132291 z m 5.86934,-12.6250346 -0.31309,-0.31309 v 0.273402 0.273405 l 0.17639,0.176387 0.176387,0.17639 0.136702,-0.136703 0.136703,-0.136699 z m -4.10545,9.67052 -0.17639,-0.1763871 v -2.1832229 -2.183222 l 0.1606,-0.418513 0.160599,-0.418515 h 2.731662 2.731661 l 0.08769,2.579687 0.08769,2.5796878 -0.08515,0.1984374 -0.08515,0.1984375 h -2.718414 -2.718414 z m 8.609086,-5.329727 -0.607232,-0.467267 0.18831,-0.188307 0.188306,-0.188309 h 0.220488 0.220485 v 0.396875 0.396875 h 0.529167 0.529166 v 0.264583 0.264584 l -0.330729,-0.0059 -0.330729,-0.0059 -0.607232,-0.467267 z"
         id="path377"
         sodipodi:nodetypes="cccccccccccccccccccccccccccccccccccccccccccccccccccccccccccccccccccccccccccccccccccccccccccccccccccccccccccccccccccccccccccccccccccccccccccccccccccccccccccccccccccccccccccccccccccccccccccccccccccccccccccccccccccccccccccccccccccccccccccccccccccccccccccccccccccccccccccccccccccccccccccccccccccccccccccccccccccccccccccccccccccccccccccccccccccccccccccccccccccccccccccccccccccccccccccccccccccccccccccccccccccccccccccccccccccccccccccccccccccccccccccccccccccccccccccccccccccccccccccccccccccccccccccccccccccccccccccccccccccccccccccccccccccccccccccccccccccccccccccccccccccccccccccccccccccc" /><path
         style="fill:#96a0a7;stroke-width:0.264583"
         d="m 75.184581,124.91494 -0.967267,-0.36005 -1.164619,-0.68251 -1.164616,-0.68251 -1.132964,-1.22912 -1.132967,-1.22913 -0.696471,-1.50154 -0.696471,-1.50155 -0.0011,-2.51354 -0.0011,-2.51355 0.704469,-4.6302 0.704466,-4.63021 0.149368,-2.64584 0.149368,-2.645828 0.255376,-2.778125 0.255373,-2.778125 0.0089,-2.053405 0.0089,-2.053405 0.55967,-1.190648 0.559671,-1.190649 1.335251,-1.200505 1.335251,-1.200507 0.530749,0.07894 0.530747,0.07893 0.02172,3.620466 0.02172,3.620465 0.773949,0.808011 0.773948,0.808009 0.884108,0.165859 0.884105,0.165859 0.809837,-0.335444 0.809836,-0.335444 0.442524,-0.673523 0.442526,-0.673523 0.132292,-3.497686 0.132291,-3.497686 0.186116,-0.185602 0.186116,-0.185603 0.68045,0.170781 0.68045,0.170783 1.036204,0.936146 1.036203,0.936149 0.543333,1.122378 0.543335,1.122379 0.01794,0.646736 0.01794,0.64674 0.384059,5.953125 0.384061,5.953122 0.263996,3.12374 0.263999,3.12374 0.687863,3.49084 0.687864,3.49085 -0.266517,1.76777 -0.26652,1.76778 -0.672809,1.46961 -0.672809,1.46961 -1.342792,1.34279 -1.34279,1.34279 -1.51784,0.69085 -1.517838,0.69085 -2.645833,0.0897 -2.645833,0.0897 -0.967269,-0.36005 z m 4.691506,-7.02637 1.078405,-0.48979 0.471911,-0.99447 0.471908,-0.99448 -0.148609,-0.91577 -0.148608,-0.91577 -0.679143,-0.8904 -0.679143,-0.8904 -0.919261,-0.17246 -0.91926,-0.17245 -0.705252,0.17701 -0.705252,0.177 -0.883986,0.88399 -0.883989,0.88399 v 1.32907 1.32908 l 0.683395,0.81217 0.683397,0.81217 0.837957,0.2426 0.837959,0.2426 0.264584,0.018 0.264583,0.0181 z M 82.369558,99.736861 V 95.63582 h -0.275297 -0.275299 l -0.782293,0.578376 -0.782296,0.578374 -1.522095,0.102886 -1.522095,0.102883 -1.244632,-0.639127 -1.244629,-0.639128 -0.121068,0.315498 -0.121068,0.315497 0.148191,3.743411 0.14819,3.74341 h 3.797194 3.797197 z M 44.092172,96.677257 41.93041,96.467884 39.461964,95.62272 l -2.468446,-0.845163 -1.5875,-0.792689 -1.5875,-0.792689 -1.606134,-1.138897 -1.606137,-1.138893 -1.491348,-1.610834 -1.491348,-1.610833 -1.207563,-1.692249 -1.207564,-1.692248 -1.03397,-2.207556 -1.033971,-2.207557 -0.609446,-1.984374 -0.609444,-1.984375 -0.0782,-30.928846 -0.07821,-30.928843 0.399672,-2.315961 0.399669,-2.3159615 0.82283,-2.2740037 0.822831,-2.2740063 1.266695,-2.1075834 1.266695,-2.1075861 1.305108,-1.56191736 1.30511,-1.56191734 1.309579,-1.160645 1.309581,-1.1606424 1.319657,-0.9603157 1.319657,-0.9603158 1.852084,-0.9207182 1.852083,-0.9207182 1.719791,-0.5579533 1.719792,-0.5579506 1.304163,-0.284734 1.30416,-0.2847341 4.635352,-0.129217 4.635351,-0.129217 0.807361,-0.637961 0.807362,-0.637958 3.487113,-3.255978 3.487116,-3.255978 7.830084,-7.540625 7.830087,-7.540625 0.379986,-0.0835 0.379987,-0.0835 3.913229,3.639172 3.91323,3.639172 6.746875,6.376066 6.746874,6.376064 1.528393,1.424236 1.52839,1.424234 -0.0944,0.285694 -0.0945,0.285695 -3.021437,0.1322912 -3.021435,0.1322916 -0.06766,22.3425482 -0.06766,22.342548 0.239554,0.239554 0.239554,0.239553 6.904234,-0.194326 6.90423,-0.194325 0.0676,-22.520068 0.0676,-22.520067 9.77192,-0.06946 9.77192,-0.06946 0.21205,0.3340391 0.21204,0.3340391 0.004,52.7356198 0.004,52.735621 -0.27389,0.511773 -0.27389,0.511773 -9.44955,-0.004 -9.44954,-0.004 -0.329,-0.208931 -0.329,-0.20893 -0.0679,-19.432328 -0.0679,-19.432337 -7.0776,-0.07047 -7.077605,-0.07047 v 19.398281 19.398278 l -0.3175,0.3175 -0.3175,0.3175 h -2.306693 -2.306696 l -0.418512,-0.1606 -0.418515,-0.160599 V 91.694436 86.75125 l -0.405583,-1.557136 -0.405582,-1.557134 -0.704779,-1.294913 -0.704781,-1.294913 -1.62461,-1.519746 -1.624613,-1.519742 -1.22282,-0.574794 -1.222819,-0.574795 -1.135436,-0.261908 -1.135435,-0.261911 -2.002499,-0.0065 -2.002499,-0.0065 -1.437084,0.426381 -1.437085,0.426384 -1.190625,0.61327 -1.190624,0.61327 -1.149279,1.131533 -1.149278,1.131535 -0.729975,1.069959 -0.729972,1.069959 -0.620226,1.5875 -0.620228,1.5875 -0.105103,5.291439 -0.105106,5.291436 -0.305832,0.194614 -0.305835,0.194615 -9.524999,-0.032 -9.525,-0.032 L 44.09198,96.67728 Z M 61.931507,43.224978 61.86435,9.5995525 l -7.659949,0.034486 -7.659951,0.034488 -1.071298,0.4738925 -1.071301,0.473893 -0.827389,0.942358 -0.827389,0.942356 -0.436232,1.152295 -0.436231,1.152295 0.073,28.70729 0.073,28.70729 0.661459,1.297541 0.661458,1.29754 0.856954,0.684509 0.856953,0.684509 0.862838,0.312925 0.862838,0.312925 7.607781,0.02013 7.607779,0.02013 -0.06715,-33.625426 z m 22.730162,27.135528 0.572321,-0.371337 0.166211,-0.756751 0.166211,-0.756751 -0.263702,-0.693586 -0.2637,-0.693584 -0.710096,-0.465273 -0.710094,-0.465272 -5.426028,0.007 -5.426027,0.007 -0.650986,0.756819 -0.650989,0.75682 0.140423,1.046935 0.140422,1.046935 0.425821,0.426617 0.42582,0.426619 1.909577,0.173154 1.90958,0.173154 3.836458,-0.123582 3.836458,-0.123579 0.57232,-0.371337 z m -2.449922,-10.157901 2.355731,-0.206026 0.356248,-0.487198 0.356248,-0.487199 V 57.923135 56.824087 L 84.75571,56.349634 84.231444,55.875181 81.91144,55.645234 79.591433,55.41529 l -3.42211,0.17087 -3.42211,0.170871 -0.612786,0.612785 -0.612785,0.612786 v 0.686625 0.686623 l 0.401687,0.776777 0.401688,0.77678 0.5905,0.134165 0.590499,0.134167 1.5875,0.08422 1.5875,0.08422 1.5875,0.03123 1.5875,0.03122 z m -0.307599,-10.315334 2.312712,-0.20261 0.531558,-0.481052 0.531556,-0.481052 v -1.10861 -1.108609 L 84.75571,46.030884 84.231444,45.556431 81.91144,45.326484 79.591433,45.09654 l -3.386984,0.168929 -3.386982,0.168928 -0.581768,0.471086 -0.581766,0.471085 v 1.204552 1.204553 l 0.459055,0.459055 0.459055,0.459055 2.054486,0.171923 2.054487,0.171924 1.455209,0.02111 1.455208,0.02114 2.312715,-0.20261 z m 2.539904,-10.766689 0.60474,-0.423577 0.255823,-0.67287 0.255825,-0.672867 -0.279524,-0.846968 -0.279524,-0.846968 -0.681532,-0.364744 -0.681533,-0.364747 -5.232352,0.0076 -5.232349,0.0076 -0.689499,0.451776 -0.689502,0.451779 -0.16965,0.675947 -0.169651,0.675947 0.240535,0.838702 0.240538,0.838703 0.652518,0.330187 0.652518,0.330186 5.29894,0.0039 5.298942,0.0039 0.604737,-0.423574 z m 0.24419,-10.482209 0.382275,-0.317262 0.244962,-0.644295 0.244961,-0.644297 -0.284022,-0.860594 -0.284022,-0.860595 -0.716105,-0.271634 -0.716108,-0.271635 -2.352321,-0.169399 -2.35232,-0.1694 -3.056633,0.18823 -3.056636,0.18823 -0.610314,0.610314 -0.610317,0.610317 v 0.8875 0.887497 l 0.375308,0.513591 0.375312,0.513591 1.807501,0.176114 1.807503,0.176115 4.209349,-0.112565 4.209349,-0.112561 z m 0.03355,-10.393174 0.51643,-0.529167 0.05134,-0.529166 0.05135,-0.529167 -0.03047,-0.595313 -0.03047,-0.595312 -0.488966,-0.488966 -0.488966,-0.488966 -2.977353,-0.188396 -2.977351,-0.1884 -2.80298,0.187762 -2.802979,0.187759 -0.609868,0.60987 -0.609869,0.609867 v 0.823172 0.823169 l 0.281879,0.526698 0.281879,0.526695 0.536138,0.198332 0.536136,0.198329 5.523844,-0.01482 5.52384,-0.01482 z M 84.221641,7.9809508 84.883099,7.6463799 85.231868,6.9190033 85.580636,6.1916294 85.276823,5.2710699 84.973013,4.3505131 84.48243,4.0879591 83.991845,3.8254078 H 82.66715 81.342453 l -0.129005,-0.2087377 -0.129009,-0.2087377 0.526738,-1.9740747 0.526738,-1.97407466 0.896601,-1.85208324 0.896604,-1.8520832 0.987933,-1.190625 0.987933,-1.1906249 1.47243,-1.2451291 1.472433,-1.2451291 0.661458,-0.527558 0.661459,-0.5275555 -4.497917,-4.32155 -4.497916,-4.321551 -1.384612,-1.279993 -1.384613,-1.279996 -2.054971,1.86591 -2.054971,1.865908 -3.793405,3.814974 -3.793402,3.814974 1.746525,1.2462933 1.746528,1.246296 1.362326,1.6370008 1.362326,1.6370008 1.140502,2.3819272 1.140503,2.38192722 0.315616,1.21597198 0.315616,1.2159694 -0.16795,0.4376764 -0.167952,0.4376737 h -1.44431 -1.444307 l -0.54837,0.69714 -0.54837,0.69714 0.0084,0.8242141 0.0084,0.8242141 0.322313,0.4160811 0.322315,0.4160811 0.529167,0.303477 0.529166,0.3034771 5.159375,0.00415 5.159375,0.00415 0.661458,-0.3345735 z m -8.196273,-16.0353923 -0.391065,-0.2645013 -0.09918,-1.9641342 -0.09918,-1.964134 0.301119,-0.562647 0.301123,-0.56265 h 2.21801 2.21801 l 0.418512,0.160599 0.418515,0.1606 v 2.337326 2.3373293 l -0.320839,0.1982893 -0.320841,0.1982894 -2.126554,0.095067 -2.126557,0.095065 z"
         id="path375"
         sodipodi:nodetypes="cccccccccccccccccccccccccccccccccccccccccccccccccccccccccccccccccccccccccccccccccccccccccccccccccccccccccccccccccccccccccccccccccccccccccccccccccccccccccccccccccccccccccccccccccccccccccccccccccccccccccccccccccccccccccccccccccccccccccccccccccccccccccccccccccccccccccccccccccccccccccccccccccccccccccccccccccccccccccccccccccccccccccccccccccccccccccccccccccccccccccccccccccccccccccccccccccccccccccccccccccccccccccccccccccccccccccccccccccccccccccccccccccccccccc" /><path
         style="fill:#354856;stroke-width:0.264583"
         d="m 75.736342,124.65986 -1.209318,-0.34314 -1.207447,-0.70761 -1.20745,-0.70761 -1.207032,-1.34252 -1.207034,-1.34251 -0.507317,-1.37626 -0.50732,-1.37627 -0.176231,-1.37969 -0.176231,-1.37969 0.519721,-3.11822 0.519721,-3.11823 0.403815,-3.43958 0.403815,-3.43959 0.152868,-2.381245 0.152868,-2.38125 0.206526,-4.233333 0.206526,-4.233333 0.557863,-1.076381 0.557864,-1.076383 1.078253,-0.974138 1.078257,-0.97414 h 0.396113 0.396113 v 3.470712 3.470708 l 1.027205,1.027208 1.027207,1.027205 h 1.345224 1.345224 l 0.895725,-0.895726 0.895726,-0.895723 0.171426,-0.857141 0.171429,-0.857139 v -2.729436 -2.729439 l 0.231529,-0.143092 0.231532,-0.143095 1.086283,0.786903 1.086287,0.7869 0.709967,1.072832 0.709967,1.072833 0.211434,4.022431 0.211434,4.022434 0.412379,5.423958 0.412377,5.42396 0.268441,1.68207 0.268441,1.68208 0.387257,1.84095 0.387255,1.84095 v 1.38989 1.38989 l -0.414745,1.43708 -0.414742,1.43709 -0.941951,1.39132 -0.941949,1.39132 -1.222994,0.88113 -1.222994,0.88113 -1.190625,0.46665 -1.190625,0.46666 -1.984375,0.10438 -1.984374,0.10438 z m 4.406307,-6.43033 0.89571,-0.42505 0.533339,-0.86296 0.533336,-0.86295 -0.0011,-1.1594 -0.0011,-1.15939 -0.515546,-0.84552 -0.515546,-0.84552 -0.694949,-0.45535 -0.69495,-0.45535 H 78.50195 77.322054 l -0.717476,0.53145 -0.717473,0.53144 -0.618675,0.90172 -0.618678,0.90171 0.126563,1.15471 0.126561,1.1547 0.510921,0.69738 0.510924,0.69738 0.907232,0.46261 0.907235,0.46261 0.753763,5.3e-4 0.753764,5.2e-4 0.895712,-0.42504 z m 2.43151,-18.691106 0.07225,-4.696354 h -0.29864 -0.29864 l -0.777828,0.6545 -0.77783,0.6545 -0.980157,0.255873 -0.980156,0.255873 -1.117368,-0.212087 -1.117369,-0.212088 -0.900496,-0.686842 -0.900499,-0.686845 -0.164947,0.164946 -0.164946,0.164947 v 4.409723 4.40972 l 0.183007,0.18301 0.183007,0.18301 3.98418,-0.0728 3.98418,-0.0728 z m -38.172248,-3.280827 -0.79375,-0.09578 -1.5875,-0.288504 -1.5875,-0.288502 -2.645833,-1.043482 -2.645833,-1.04348 -1.815367,-1.201637 -1.815367,-1.201634 -1.179743,-1.087451 -1.179745,-1.08745 -1.584682,-2.103033 -1.584682,-2.103033 -1.044744,-2.077891 -1.044745,-2.077895 -0.724982,-2.052132 -0.724979,-2.052135 -0.07482,-31.538056 -0.07482,-31.538054 0.503272,-2.463557 0.503271,-2.4635536 0.833274,-2.0016152 0.833273,-2.0016125 1.298901,-2.1106393 1.298897,-2.11063937 1.743432,-1.88306863 1.743433,-1.8830686 1.81615,-1.3463666 1.816147,-1.3463666 2.516854,-1.1922442 2.516852,-1.1922442 2.078088,-0.5531829 2.078085,-0.5531802 4.984278,-0.1397582 4.984279,-0.1397559 3.085513,-2.808996 3.085512,-2.808994 7.14375,-6.879079 7.143749,-6.87908 1.872115,-1.786045 1.872115,-1.786046 h 0.333976 0.333978 l 3.747032,3.496815 3.747034,3.496816 6.746874,6.37387 6.746875,6.37387 1.384772,1.274011 1.38478,1.274014 -0.14362,0.232384 -0.14362,0.232386 h -2.853049 -2.853049 l -0.174043,4.804915 -0.174046,4.80491244 V 17.075349 34.738378 l 0.1606,0.418513 0.160599,0.418515 h 7.349168 7.34916 l 0.13854,-0.529778 0.13854,-0.529775 -0.004,-22.025953 -0.004,-22.0259498 9.55399,-0.069448 9.55398,-0.069445 -0.0668,52.9861088 -0.0668,52.986112 h -9.51987 -9.51987 l -0.005,-19.314582 -0.005,-19.314582 -0.21405,-0.33073 -0.21405,-0.330729 h -7.07522 -7.075215 l -0.3175,0.3175 -0.3175,0.3175 v 19.403538 19.403538 l -2.579687,-0.07573 -2.579687,-0.07573 -0.132292,-5.70367 -0.132292,-5.703668 -0.991184,-2.004118 -0.991182,-2.004118 -1.698824,-1.589167 -1.698826,-1.589166 -1.483892,-0.701993 -1.483891,-0.701992 -2.074548,-0.302369 -2.07455,-0.302368 -2.184387,0.430347 -2.184384,0.430348 -1.404323,0.68707 -1.404321,0.687069 -1.422114,1.399575 -1.422117,1.399574 -0.725742,1.238388 -0.725744,1.238387 -0.435247,1.121976 -0.435248,1.121979 -0.147444,5.423958 -0.147447,5.423958 -10.186458,0.02803 -10.186458,0.02803 -0.79375,-0.09578 z M 62.22984,77.02051 62.527835,76.661452 62.460676,42.955408 62.393517,9.2493659 54.725953,9.1790635 47.058392,9.1087584 45.934707,9.4916369 44.811024,9.8745154 43.921505,10.552981 43.03199,11.23145 l -0.770277,1.390208 -0.770278,1.390208 v 29.104165 29.104165 l 0.624422,1.190625 0.624422,1.190625 0.698494,0.751226 0.698495,0.751224 0.792038,0.413369 0.792035,0.413366 0.663173,0.201729 0.66317,0.201726 7.442084,0.02276 7.44208,0.02275 0.297992,-0.359061 z m 18.764533,-4.699058 0.08003,-0.957077 1.763485,-0.141555 1.763488,-0.141557 0.603885,-0.702059 0.603885,-0.702058 v -0.928683 -0.928679 l -0.307801,-0.577919 -0.307803,-0.577919 -0.419801,-0.322315 -0.419803,-0.322313 -1.468438,-0.0084 -1.468437,-0.0084 -0.3175,-0.3175 -0.3175,-0.3175 v -2.143125 -2.143125 l 0.3175,-0.3175 0.3175,-0.3175 h 1.505272 1.50527 l 0.584701,-0.473461 0.5847,-0.473462 0.139057,-1.233696 0.139054,-1.233696 -0.806384,-0.806384 -0.806381,-0.806384 h -1.422646 -1.422643 l -0.3175,-0.3175 -0.3175,-0.3175 v -2.010833 -2.010834 l 0.3175,-0.317499 0.3175,-0.3175 h 1.422643 1.422646 l 0.773396,-0.773399 0.773398,-0.773395 V 47.61395 46.647202 l -0.773398,-0.773395 -0.773396,-0.773399 h -1.422646 -1.422643 l -0.3175,-0.3175 -0.3175,-0.3175 v -2.167733 -2.167734 l 0.418515,-0.1606 0.418513,-0.160599 h 1.410049 1.410049 l 0.68498,-0.814051 0.684977,-0.814049 v -0.786591 -0.786587 l -0.393973,-0.76186 -0.393975,-0.76186 -0.598212,-0.191468 -0.598215,-0.191468 -1.455208,-0.158012 -1.455209,-0.158012 v -2.38125 -2.38125 l 1.830129,-0.157035 1.83013,-0.157036 0.617265,-0.717613 0.617268,-0.717616 v -0.796391 -0.796388 l -0.307801,-0.577918 -0.307803,-0.577919 -0.419801,-0.322316 -0.419803,-0.322312 -1.488959,-0.0084 -1.488956,-0.0084 -0.308094,-0.371231 -0.308097,-0.371232 0.07726,-2.208456 0.07726,-2.208461 1.77233,-0.07793 1.772328,-0.07792 0.675068,-0.802273 0.675066,-0.802272 v -0.78659 -0.786588 l -0.392274,-0.758573 -0.392274,-0.758574 -0.899864,-0.296982 -0.899863,-0.296981 -0.900703,0.06066 -0.900702,0.06066 -0.320702,-0.198204 -0.320701,-0.198205 V 11.403333 9.2229076 l 0.3175,-0.3175 0.3175,-0.3175 h 1.422643 1.422646 L 85.035743,7.8145094 85.809141,7.0411138 V 6.2442338 5.4473565 L 85.54624,4.7558759 85.28334,4.0643954 84.307832,3.6568021 83.332323,3.2492089 82.624941,3.3906842 81.917562,3.5321622 81.642554,3.2571543 81.367549,2.982149 81.62084,2.014716 l 0.253293,-0.967433 0.662827,-1.77313955 0.662828,-1.77313955 1.001009,-1.534152 1.001006,-1.5341519 1.693921,-1.6132598 1.693918,-1.6132598 0.858707,-0.4440554 0.858708,-0.4440555 v -0.3651725 -0.365173 l -5.82546,-5.515011 -5.825458,-5.515012 -0.253114,-0.08591 -0.253114,-0.08591 -5.761532,5.642163 -5.761529,5.642162 -0.08105,0.177001 -0.08105,0.1770011 1.988066,1.4702472 1.988068,1.4702445 1.048454,1.3263959 1.048457,1.3263932 0.82524,1.4423733 0.825244,1.4423707 0.651054,1.9141836 0.651055,1.9141809 V 2.780653 3.2307145 l -1.457243,0.1208458 -1.457242,0.1208458 -0.659424,0.6194953 -0.659424,0.6194981 v 1.2407158 1.2407159 l 0.697537,0.6975395 0.69754,0.6975369 h 1.498502 1.498504 l 0.3175,0.3175 0.3175,0.3175 v 2.1867334 2.186731 l -0.511773,0.273894 -0.511773,0.273891 h -1.281437 -1.281441 l -0.56779,0.397696 -0.567788,0.397695 -0.297863,0.902533 -0.297863,0.902531 0.382911,0.916432 0.382907,0.916432 0.357728,0.230735 0.357724,0.230738 1.719792,0.132291 1.719791,0.132292 v 2.513542 2.513541 l -1.758918,0.132292 -1.758918,0.132291 -0.556186,0.504029 -0.556186,0.504029 v 1.252595 1.252599 l 0.49733,0.614177 0.497329,0.614174 1.88392,0.106453 1.883921,0.10645 v 2.452862 2.452862 l -1.755439,0.111778 -1.755439,0.111776 -0.625811,0.727551 -0.625811,0.727549 v 1.187897 1.187897 l 0.649433,0.64943 0.649431,0.649433 h 1.567129 1.56713 l 0.283898,0.342075 0.283895,0.342074 -0.185354,2.237613 -0.185354,2.237613 -1.809556,0.132292 -1.809557,0.132291 -0.505548,0.624623 -0.505547,0.624626 v 1.17334 1.17334 l 0.649433,0.64943 0.649431,0.649433 h 1.546611 1.546608 l 0.3175,0.3175 0.3175,0.3175 v 2.010833 2.010833 l -0.3175,0.3175 -0.3175,0.3175 H 74.00147 72.353798 l -0.54837,0.69714 -0.54837,0.69714 v 1.166969 1.166971 l 0.649433,0.64943 0.649431,0.649433 h 1.567129 1.56713 l 0.308094,0.371232 0.308097,0.371232 -0.07726,2.208455 -0.07726,2.208456 -1.830128,0.157036 -1.830131,0.157035 -0.617265,0.717614 -0.617268,0.717616 v 1.187897 1.187897 l 0.649433,0.64943 0.649431,0.649433 h 1.583912 1.583912 l 0.205888,0.330729 0.205888,0.330729 -0.07634,0.590881 -0.07634,0.590881 0.172431,0.278998 0.172429,0.278998 2.293321,-0.07613 2.293318,-0.07613 z m -5.07515,-80.8113024 -0.164248,-0.428019 v -1.6765136 -1.676514 l 0.160599,-0.418512 0.160599,-0.418516 h 2.495161 2.495164 l -0.07607,2.447396 -0.07608,2.4473958 -2.415439,0.075652 -2.415442,0.075652 z"
         id="path373"
         sodipodi:nodetypes="cccccccccccccccccccccccccccccccccccccccccccccccccccccccccccccccccccccccccccccccccccccccccccccccccccccccccccccccccccccccccccccccccccccccccccccccccccccccccccccccccccccccccccccccccccccccccccccccccccccccccccccccccccccccccccccccccccccccccccccccccccccccccccccccccccccccccccccccccccccccccccccccccccccccccccccccccccccccccccccccccccccccccccccccccccccccccccccccccccccccccccccccccccccccccccccccccccccccccccccccccccccccccccccccccccccccccccccccccccccccccccccccccccccccccccccccccccccccccccccccccccccccccccccccccccccccccc" /><path
         style="fill:#213544;stroke-width:0.264583"
         d="m 76.019518,124.39329 -1.190625,-0.34458 -1.00535,-0.48451 -1.005354,-0.4845 -1.158822,-1.12625 -1.158824,-1.12625 -0.72526,-1.41704 -0.725263,-1.41705 -0.118589,-2.1501 -0.118586,-2.15009 0.409572,-2.48011 0.409575,-2.48012 0.405242,-3.57187 0.405241,-3.57188 0.306215,-3.836453 0.306213,-3.836459 0.07836,-2.71386 0.07837,-2.71386 0.569833,-1.177115 0.569831,-1.177118 0.917276,-0.805376 0.917273,-0.805378 h 0.255379 0.255375 v 3.188139 3.188139 l 0.392883,0.759751 0.392882,0.759751 0.830802,0.591584 0.830803,0.591582 1.13801,0.02458 1.138007,0.02458 0.730813,-0.545516 0.730811,-0.545515 0.545515,-0.729602 0.545516,-0.729604 0.08772,-3.288943 0.08772,-3.288945 h 0.242244 0.242242 l 1.10045,0.992187 1.100449,0.992188 0.482002,1.058333 0.482002,1.058333 0.0058,2.17178 0.0058,2.171782 0.532537,6.956342 0.532535,6.956343 0.389649,2.24896 0.389647,2.24896 0.318865,1.67366 0.318863,1.67367 -0.321374,1.8741 -0.321373,1.8741 -0.711303,1.3069 -0.711303,1.3069 -1.279502,1.15038 -1.279503,1.15039 -1.508228,0.5643 -1.508229,0.5643 -1.720119,0.11032 -1.72012,0.11033 -1.190625,-0.34458 z m 4.180326,-5.84587 0.714465,-0.37174 0.569953,-0.62045 0.569952,-0.62045 0.265017,-0.97916 0.26502,-0.97916 -0.213281,-0.94566 -0.21328,-0.94566 -0.684917,-0.89797 -0.684913,-0.89797 -0.952648,-0.3144 -0.952649,-0.3144 -0.831881,0.16637 -0.831879,0.16638 -0.955167,0.6321 -0.955167,0.6321 -0.438224,0.92349 -0.438227,0.92349 0.0044,0.88606 0.0043,0.88605 0.594947,1.05834 0.594948,1.05833 0.922054,0.46261 0.922054,0.46261 1.005327,5.3e-4 1.005327,5.3e-4 0.714464,-0.37174 z m 2.638288,-19.273579 0.07174,-5.225521 h -0.39316 -0.393158 l -0.270547,0.505518 -0.270544,0.505521 -0.93549,0.578162 -0.93549,0.578165 -1.30574,-0.01011 -1.305742,-0.01011 -0.606386,-0.312148 -0.606388,-0.312147 -0.706104,-0.658035 -0.706104,-0.658032 -0.286083,0.176811 -0.286084,0.176808 v 4.83508 4.835077 l 0.1827,0.1827 0.182703,0.1827 4.249068,-0.0725 4.249071,-0.0725 z M 61.269038,95.97904 60.409142,95.866875 v -9.096147 -9.096147 l 1.124479,-0.08136 1.124479,-0.08136 0.07078,-33.998957 0.07078,-33.9989568 -0.271322,-0.5291666 -0.27132,-0.5291667 -0.06405,-9.26041618 -0.06405,-9.26041572 -3.53712,-0.05344 -3.537119,-0.05344 -0.112178,-0.112181 -0.11218,-0.112178 1.664925,-1.569455 1.664922,-1.569456 4.830254,-4.614928 4.830257,-4.614926 5.206111,-4.960937 5.20611,-4.960937 0.150091,0.0051 0.150093,0.0051 5.448111,5.088118 5.448115,5.088119 4.738769,4.497916 4.738769,4.497916 1.542252,1.389063 1.54225,1.389062 -2.601007,0.004 -2.60101,0.004 -0.396875,0.250833 -0.396875,0.250835 -0.07051,22.64081 -0.07051,22.64081 0.300787,0.562028 0.300789,0.562025 -0.04635,10.210504 -0.04635,10.210505 -0.250076,0.251355 -0.250076,0.251354 v 19.536549 19.536552 l -2.315104,-0.07645 -2.315104,-0.07645 -0.0145,-5.159375 -0.0145,-5.159374 -0.702273,-1.788679 -0.702273,-1.788676 -0.779315,-1.12174 -0.779317,-1.121738 -0.885155,-0.842801 -0.885156,-0.842802 -1.55404,-0.932359 -1.554041,-0.932363 -1.991638,-0.443098 -1.991638,-0.443097 -1.878279,0.165952 -1.87828,0.165952 -1.272627,0.390779 -1.272625,0.390779 -1.328089,0.722836 -1.328089,0.722836 -1.475661,1.59389 -1.475663,1.593892 -0.950706,1.990635 -0.950719,1.990641 -0.132292,5.423958 -0.132292,5.423958 -1.587499,0.02925 -1.5875,0.02926 z m 19.843749,-22.30031 0.198437,-0.0033 v -1.058333 -1.058333 h 1.151144 1.151141 l 0.841272,-0.29327 0.841272,-0.293266 0.361191,-0.698921 0.361188,-0.698918 0.05812,-0.529167 0.05811,-0.529166 -0.03047,-0.591138 -0.03047,-0.59114 -0.730215,-0.817253 -0.730216,-0.817252 -1.660787,-0.150593 -1.660787,-0.150596 0.0759,-2.277163 0.0759,-2.277165 0.992783,0.08616 0.99278,0.08616 0.93005,-0.306943 0.930047,-0.306943 0.392274,-0.758574 0.392274,-0.758573 V 57.828298 56.771581 L 85.436163,56.030372 84.798605,55.289166 83.121059,55.155723 81.443516,55.02228 v -2.248958 -2.248958 l 0.396875,-0.03563 0.396875,-0.03563 1.144831,-0.03052 1.144833,-0.03052 0.773396,-0.773398 0.773398,-0.773396 v -1.231331 -1.231331 l -0.773398,-0.773395 -0.773396,-0.773399 -0.747958,-0.05154 -0.747956,-0.05154 -0.79375,-0.02758 -0.79375,-0.02758 -0.07645,-2.302129 -0.07645,-2.302126 h 1.706573 1.706573 l 0.68498,-0.814052 0.684977,-0.814049 v -1.166151 -1.16615 l -0.75442,-0.844341 -0.754419,-0.844344 -1.62683,-0.117673 -1.626831,-0.117674 v -2.186337 -2.186334 l 1.755439,-0.111778 1.755439,-0.111776 0.625811,-0.727551 0.625811,-0.727549 v -1.15557 -1.15557 l -0.674642,-0.801767 -0.674643,-0.801767 -1.640461,-0.07843 -1.640462,-0.07843 -0.07645,-2.315104 -0.07645,-2.315104 h 1.618155 1.618154 l 0.773396,-0.773398 0.773398,-0.773396 v -1.237438 -1.237435 l -0.899583,-0.899583 -0.899583,-0.899583 h -1.491967 -1.49197 L 81.36707,11.299887 81.443516,8.9847826 83.121059,8.85134 84.798605,8.7178974 85.436163,7.976691 86.073724,7.235482 V 6.1787653 5.122046 L 85.684887,4.3701214 85.296053,3.6181941 84.454781,3.3249273 83.613509,3.0316579 h -0.907581 -0.907582 l 0.182502,-0.8598958 0.182504,-0.8598958 0.762296,-1.98437492 0.762299,-1.98437488 0.791398,-1.190625 0.791395,-1.1906249 1.524953,-1.5355649 1.524955,-1.5355648 1.257786,-0.807122 1.25779,-0.8071194 v -0.2633953 -0.2633952 l -4.431771,-4.286583 -4.43177,-4.286583 -1.802016,-1.661314 -1.802017,-1.661316 -1.372983,1.253218 -1.372984,1.253214 -4.808693,4.751433 -4.808694,4.751429 0.128627,0.3003736 0.128625,0.3003736 1.466818,0.9260416 1.466818,0.9260416 1.361168,1.4795102 1.361164,1.4795076 0.905746,1.5194174 0.905743,1.5194147 0.747903,2.11348095 0.7479,2.11348095 V 2.7862515 3.0316579 H 74.184699 73.14359 L 72.465029,3.2896451 71.786468,3.547635 71.243284,4.4141242 70.7001,5.2806161 l 0.12497,1.0217096 0.124971,1.0217097 0.721035,0.7525993 0.721034,0.7525967 1.615287,0.077777 1.615286,0.077774 0.07605,2.2879766 0.07605,2.287976 -1.663549,0.189741 -1.663552,0.189743 -0.460282,0.242104 -0.460283,0.242105 -0.399613,0.772766 -0.399613,0.772768 v 0.691991 0.691992 l 0.29555,0.577918 0.29555,0.577919 0.564345,0.457137 0.564346,0.457139 1.663946,0.0059 1.663949,0.0059 -0.07645,2.315104 -0.07645,2.315104 -1.322917,0.06914 -1.322916,0.06914 -0.60352,0.136398 -0.60352,0.136398 -0.51997,0.852797 -0.519969,0.852795 -0.0011,0.621472 -0.0011,0.621472 0.409625,0.863221 0.409625,0.863224 0.661157,0.301242 0.661159,0.301244 h 1.442757 1.44276 v 2.248958 2.248958 l -1.389062,0.0011 -1.389063,0.0011 -0.83262,0.507698 -0.832617,0.507701 -0.306697,0.929299 -0.306694,0.929296 0.281318,1.044733 0.281315,1.044734 0.434684,0.361551 0.434684,0.36155 1.746229,0.132292 1.746231,0.132291 v 2.248959 2.248958 H 74.155849 72.68915 l -0.705726,0.462314 -0.705726,0.462312 -0.285996,1.062109 -0.285996,1.062109 0.520946,1.177687 0.520946,1.177686 0.614559,0.139169 0.614555,0.139168 1.322917,0.06914 1.322916,0.06914 v 2.204511 2.204513 l -1.613275,0.04445 -1.613279,0.04445 -0.478229,0.396875 -0.478229,0.396875 -0.365262,0.873834 -0.365265,0.873834 0.169579,0.903939 0.169579,0.903935 0.669624,0.669626 0.669626,0.669624 0.426939,0.04175 0.426943,0.04175 1.190624,0.03222 1.190625,0.03222 0.07645,2.30728 0.07645,2.307281 -1.399365,0.0039 -1.399363,0.0039 -0.661458,0.328917 -0.661458,0.328919 -0.492752,1.006721 -0.492752,1.006721 0.334332,1.194126 0.334336,1.194125 0.675822,0.442897 0.675825,0.442899 1.466969,0.04132 1.466969,0.04131 0.07634,0.884727 0.07634,0.884724 0.094,0.279146 0.094,0.279149 2.475491,-0.07738 2.475495,-0.07739 0.198437,-0.0033 z m -4.773628,-84.30031 0.07727,-2.011574 h 2.116667 2.116666 l 0.07727,2.011574 0.07728,2.0115718 H 78.5331 76.261882 Z"
         id="path371"
         sodipodi:nodetypes="ccccccccccccccccccccccccccccccccccccccccccccccccccccccccccccccccccccccccccccccccccccccccccccccccccccccccccccccccccccccccccccccccccccccccccccccccccccccccccccccccccccccccccccccccccccccccccccccccccccccccccccccccccccccccccccccccccccccccccccccccccccccccccccccccccccccccccccccccccccccccccccccccccccccccccccccccccccccccccccccccccccccccccccccccccccccccccccccccccccccccccccccccccccccccccccccccccccccccccccccccccccccccccccccccccccccccccccccccccccc" /><path
         style="fill:#1b2e3b;stroke-width:0.264583"
         d="m 75.859199,124.24004 -0.821817,-0.21139 -1.489892,-0.85244 -1.489895,-0.85243 -0.896488,-1.107 -0.896485,-1.107 -0.414697,-0.81751 -0.414698,-0.8175 -0.31034,-1.78211 -0.31034,-1.7821 0.180723,-1.10456 0.180721,-1.10456 0.517925,-3.43958 0.517927,-3.43958 0.519978,-6.614585 0.519977,-6.614583 0.0026,-1.926728 0.0026,-1.926727 0.410284,-0.983689 0.410284,-0.983689 0.846487,-0.881613 0.846486,-0.88161 0.396875,-0.216882 0.396875,-0.216881 v 3.34745 3.347452 l 0.490398,0.722945 0.490397,0.722945 0.863748,0.533826 0.863751,0.533826 h 1.054121 1.054121 l 0.899025,-0.598805 0.899022,-0.598803 0.527849,-1.054843 0.527852,-1.054841 0.133607,-2.910416 0.133609,-2.910417 0.173953,0.596405 0.173953,0.596403 0.382267,-0.14669 0.382268,-0.146688 0.819793,0.933691 0.81979,0.93369 0.131447,0.865553 0.131448,0.865553 0.150577,3.439583 0.150574,3.439583 0.409329,5.027085 0.409332,5.02708 0.57781,3.30729 0.577813,3.30729 5.29e-4,2.38753 5.29e-4,2.38752 -0.871008,1.76856 -0.871008,1.76856 -1.113367,0.97012 -1.113366,0.97011 -1.455209,0.67884 -1.455208,0.67883 -2.116666,0.07 -2.116667,0.07 -0.821817,-0.2114 z m 4.648782,-5.65162 1.160965,-0.59531 0.482598,-0.92191 0.482597,-0.92192 v -1.33177 -1.33177 l -0.669047,-0.98459 -0.669046,-0.98459 -0.773023,-0.39975 -0.773022,-0.39974 h -1.296358 -1.296358 l -1.058513,0.76678 -1.058513,0.76678 -0.455755,1.13905 -0.455756,1.13905 0.173869,0.93844 0.173871,0.93844 0.547838,0.89114 0.547838,0.89114 1.083593,0.49211 1.083591,0.49211 0.803833,0.006 0.803833,0.006 1.160965,-0.59532 z m 3.280175,-2.44739 -0.152297,-0.39688 h -0.368567 -0.368568 v 0.22049 0.22049 l 0.17639,0.17638 0.176387,0.17639 h 0.344474 0.344475 z m -1.043364,-11.40539 0.418516,-0.1606 V 99.311679 94.04832 h 0.264583 0.264583 v -0.264583 -0.264584 h -0.630055 -0.630055 l -0.677926,0.888807 -0.677928,0.88881 -0.914815,0.434107 -0.914818,0.43411 h -0.889974 -0.889974 l -1.030938,-0.552551 -1.030941,-0.55255 -0.445286,-0.549905 -0.445283,-0.549905 -0.438086,0.168111 -0.438087,0.168108 v 4.884198 4.884197 l 0.415774,0.41577 0.415774,0.41578 h 3.928211 3.928213 z m 0.983144,-9.53734 -0.283953,-0.488522 -0.008,0.780521 -0.008,0.780521 0.292,-0.291999 0.292002,-0.292003 -0.283956,-0.488518 z m 7.637455,-4.066146 v -4.92529 L 90.939009,84.76978 90.512625,83.332696 89.904184,82.142071 89.29574,80.951446 88.317108,79.817074 87.338472,78.682702 85.846201,77.680545 84.353933,76.678388 83.163308,76.206853 81.972683,75.73532 l -2.67208,-0.139877 -2.67208,-0.139877 -1.428962,0.3316 -1.428961,0.331602 -1.621684,0.760955 -1.621682,0.760952 -1.553318,1.665306 -1.553316,1.665306 -0.743275,1.48006 -0.743278,1.480061 -0.378061,1.420434 -0.378063,1.420437 -0.0031,4.564062 -0.0031,4.564062 -1.256771,-1.16e-4 -1.256771,-1.17e-4 -0.06159,-8.907951 -0.06159,-8.907949 0.298437,-0.359593 0.298434,-0.359592 -0.133972,-43.643786 -0.133972,-43.643786 -0.351493,-0.423526 -0.351497,-0.423524 -1.735754,0.05078 -1.735754,0.05078 -1.587499,-0.03468 -1.5875,-0.03468 1.5875,-1.501524 1.587499,-1.501526 2.38125,-2.247085 2.38125,-2.247085 4.372843,-4.249703 4.372842,-4.249703 2.981722,-2.84427 2.981722,-2.844271 h 0.14591 0.145909 l 5.331817,4.943876 5.331817,4.943875 4.7625,4.550084 4.7625,4.550082 1.496188,1.287812 1.49619,1.287812 -2.683535,0.0761 -2.683534,0.0761 -0.204946,0.204946 -0.204944,0.204943 -0.01151,53.164791 -0.01151,53.16479 -2.234234,0.01238 -2.234234,0.01238 V 91.13217 Z M 81.245079,73.801989 81.575808,73.692012 v -0.906039 -0.906036 l 0.418515,-0.1606 0.418513,-0.160599 h 1.054089 1.054087 l 0.534172,-0.28588 0.534173,-0.285879 0.374475,-0.896247 0.374475,-0.896247 V 68.379097 67.56371 L 85.938694,66.790941 85.539081,66.018175 85.030046,65.745747 84.521012,65.473321 H 83.04841 81.575808 v -2.248958 -2.248958 h 1.442759 1.442757 l 0.660739,-0.301053 0.660739,-0.301051 0.277751,-0.796764 0.277754,-0.796763 v -1.045308 -1.045311 l -0.899583,-0.899583 -0.899583,-0.899583 h -1.481667 -1.481666 v -2.116667 -2.116666 h 1.451033 1.451036 l 0.864068,-0.772047 0.864071,-0.772046 v -1.498616 -1.498615 l -0.864071,-0.772047 -0.864068,-0.772046 h -1.451036 -1.451033 v -1.289844 -1.289843 l -0.165365,-0.826823 -0.165364,-0.826823 h 1.889045 1.889046 l 0.530762,-0.859896 0.530762,-0.859896 0.155927,-0.59705 0.155927,-0.597054 -0.178793,-0.953042 -0.178792,-0.953045 -0.682712,-0.632717 -0.682715,-0.632716 h -1.548863 -1.548865 v -2.103528 -2.10353 l 1.61626,-0.182859 1.61626,-0.182858 0.698844,-0.60112 0.698844,-0.60112 V 26.977652 25.477833 L 85.341945,24.705786 84.477877,23.93374 h -1.422353 -1.422349 l -0.175364,-0.698693 -0.17536,-0.698693 0.173434,-1.388107 0.173432,-1.38811 1.600076,-0.11574 1.600075,-0.115736 0.75442,-0.844344 0.754419,-0.844341 V 16.909609 15.979244 L 85.963832,15.082997 85.589357,14.18675 85.055184,13.90087 84.521012,13.614991 H 83.04841 81.575808 V 11.366032 9.1170742 h 1.310468 1.310465 L 84.8579,8.8158302 85.519057,8.5145889 85.928682,7.6513647 86.338307,6.7881431 V 6.092027 5.3959109 L 85.963832,4.499664 85.589357,3.6034171 85.055184,3.3175375 84.521012,3.0316579 h -1.340311 -1.34031 V 2.9331376 2.83462 l 0.663601,-2.03289152 0.663605,-2.03289158 0.564081,-1.1097339 0.564081,-1.1097365 1.150823,-1.4552082 1.150827,-1.4552083 1.230058,-1.0583333 1.230061,-1.0583333 0.955493,-0.5375856 0.955495,-0.5375831 v -0.4003622 -0.4003645 l -6.053077,-5.808927 -6.053076,-5.808927 -0.429882,-0.07597 -0.429882,-0.07597 -4.802832,4.706175 -4.802836,4.706175 -1.336881,1.264264 -1.336882,1.264266 0.133366,0.3475466 0.133366,0.3475487 1.067165,0.5997813 1.067165,0.5997786 1.712677,1.6021261 1.712677,1.6021234 1.081418,1.8202989 1.081419,1.8202962 0.624403,1.7202096 0.624401,1.720207 v 0.534961 0.534961 L 74.404343,2.8905688 73.847461,2.7138219 72.728565,3.0270938 71.609668,3.3403657 71.16878,4.0867315 70.727892,4.8330946 v 1.3208317 1.3208316 l 0.935249,0.8211582 0.935246,0.8211581 1.512149,2.646e-4 1.512147,2.646e-4 -0.03125,1.7856676 -0.03124,1.785667 -0.0349,0.463021 -0.0349,0.463032 H 73.923245 72.3561 l -0.814105,0.814101 -0.814101,0.814105 v 1.319956 1.319958 l 0.272425,0.509035 0.272428,0.509034 0.772766,0.399614 0.772769,0.399613 h 1.336056 1.336055 v 2.116667 2.116666 h -1.34031 -1.34031 l -0.577919,0.29555 -0.577919,0.29555 -0.457136,0.564346 -0.457139,0.564346 -0.0059,1.137618 -0.0059,1.137618 0.398642,0.770888 0.398643,0.77089 1.105135,0.297582 1.105136,0.297582 0.877472,-0.102439 0.877472,-0.102441 v 2.139013 2.139011 l -1.482339,0.06203 -1.482341,0.06203 -0.499295,0.267216 -0.499298,0.267215 -0.429067,0.829723 -0.429064,0.829723 0.127765,1.329677 0.127764,1.329679 0.710192,0.61088 0.710192,0.610881 h 1.572744 1.572747 v 2.085843 2.085845 l -1.725335,0.10986 -1.725334,0.10986 -0.56034,0.560343 -0.560343,0.56034 -0.125026,1.301181 -0.125026,1.301178 0.429064,0.829723 0.429067,0.829723 0.509034,0.272428 0.509035,0.272426 h 1.472602 1.472602 v 2.116666 2.116667 h -1.696273 -1.69627 l -0.68498,0.814051 -0.684977,0.814049 v 1.18772 1.187717 l 0.29555,0.577919 0.29555,0.577918 0.564346,0.457137 0.564346,0.457139 1.521354,0.0059 1.521354,0.0059 v 2.205541 2.20554 l -1.653646,0.04962 -1.653646,0.04962 -0.727604,0.791721 -0.727604,0.791717 v 1.06266 1.062656 l 0.374475,0.896247 0.374476,0.896247 0.534172,0.28588 0.534173,0.285879 h 1.472602 1.472602 v 1.168578 1.168574 l 0.263263,0.0882 0.263266,0.08819 2.448713,-0.08016 2.448716,-0.08016 0.330729,-0.109977 z m -4.960938,-84.396372 v -1.984375 h 1.5875 1.5875 v 0.264583 0.264584 h -0.76898 -0.768979 l 0.13838,0.529166 0.138379,0.529167 h 0.233725 0.233725 v -0.273891 -0.273894 l 0.477277,0.255431 0.477276,0.255431 0.289801,-0.179977 0.289798,-0.179975 0.122933,-0.661458 0.122936,-0.661459 0.03603,2.050521 0.03603,2.0505208 h -2.116666 -2.116667 z m -1.5875,65.087497 V 54.360822 H 74.56435 74.432058 v 0.132292 0.132291 h 0.132292 0.132291 z m 8.86787,-0.595313 0.640408,-0.727604 0.0084,-0.193397 0.0084,-0.193397 -0.664895,-0.166878 -0.664893,-0.166876 -0.393441,0.326525 -0.393438,0.326525 v 0.761352 0.761354 h 0.409567 0.409565 z m -1.194953,-2.84427 v -0.132292 h -0.132292 -0.132292 v 0.132292 0.132291 h 0.132292 0.132292 z m -9.525,-10.31875 v -0.132292 h -0.132292 -0.132291 v 0.132292 0.132292 h 0.132291 0.132292 z"
         id="path369"
         sodipodi:nodetypes="ccccccccccccccccccccccccccccccccccccccccccccccccccccccccccccccccccccccccccccccccccccccccccccccccccccccccccccccccccccccccccccccccccccccccccccccccccccccccccccccccccccccccccccccccccccccccccccccccccccccccccccccccccccccccccccccccccccccccccccccccccccccccccccccccccccccccccccccccccccccccccccccccccccccccccccccccccccccccccccccccccccccccccccccccccccccccccccccccccccccccccccccccccccccccccccccccccccccccccccccccccccccccccccccccccccccccccccccccccccccccccccccccccccccccccccccccccccccccccccccccccccccccccccccccccccccccccccccccccccc" /></g></g></svg>
