<?xml version="1.0" encoding="UTF-8" standalone="no"?>
<!-- Created with Inkscape (http://www.inkscape.org/) -->

<svg
   version="1.1"
   id="svg1"
   width="865.17908"
   height="1033.6318"
   viewBox="0 0 865.17908 1033.6318"
   xmlns="http://www.w3.org/2000/svg"
   xmlns:svg="http://www.w3.org/2000/svg">
  <defs
     id="defs1">
    <rect
       x="1214.1433"
       y="65.214645"
       width="590.76794"
       height="746.13226"
       id="rect8" />
    <rect
       x="1214.1433"
       y="65.214645"
       width="590.76794"
       height="746.13226"
       id="rect8-9" />
  </defs>
  <g
     id="g1"
     transform="translate(-124.29669,-174.89662)">
    <g
       id="g9"
       transform="translate(-1035.2498,504.57768)">
      <g
         id="g11"
         transform="translate(-207.15241,-117.00275)">
        <path
           style="fill:#dca64c"
           d="m 1925.0371,-65.115013 -17.2506,-17.03169 -17.2506,-17.03173 -44.0743,-43.749897 -44.0743,-43.75 h -0.7588 -0.7588 l -61.4163,60.7166 -58.8714,56.245297 -3.5452,3.31195 v -19.60805 l 13.2421,-13.5829 13.2421,-13.582997 18.0306,-18.4999 18.0305,-18.5 30.3272,-31.25 30.3271,-31.25 h 1.3012 1.3012 l 36.849,37.7772 36.849,37.7772 24.1025,24.987 24.1024,24.986997 0.1933,16.96263"
           id="path8" />
        <path
           style="fill:#122439"
           d="m 1516.8391,818.77567 -11.5,-1.9827 -11.9356,-3.9623 -11.9356,-3.9623 -9.5644,-4.6797 -9.5644,-4.6798 -10,-6.7031 -10,-6.7031 -7.5,-6.47117 -7.5,-6.4713 -6.7833,-7.5769 -6.7834,-7.5769 -7.9182,-11.0615 -7.9182,-11.0615 -7.5226,-15.2298 -7.5226,-15.2298 -4.1265,-12.5 -4.1264,-12.5 -2.8363,-13.73421 -2.8363,-13.73413 -1.1332,-13.76583 -1.1332,-13.76584 0.3563,-140 0.3563,-140 1.7908,-10.48094 1.7908,-10.48094 2.9661,-11.51906 2.9662,-11.51906 4.5703,-11.5 4.5702,-11.5 5.0848,-9.95529 5.0848,-9.95529 6.9292,-10.54471 6.9292,-10.54471 7.0052,-8.34793 7.0052,-8.34793 8.8722,-8.60143 8.8722,-8.60142 8.8328,-6.55065 8.8329,-6.55064 1.9124,-1.10881 1.9123,-1.10881 0.5,-87.39119 0.5,-87.391187 4,-1.3108 4,-1.3108 29.5,-7.7977093 29.5,-7.7976999 1.25,0.98095 1.25,0.9809499 v 31.8775493 31.87756 h 1.5303 1.5303 l 27.1983,-7.06726 27.1983,-7.06725 1.2714,-1.05519 1.2714,-1.05519 v -30.27057 -30.27056 l 1.3519,-0.51874 1.3518,-0.51875 14.3982,1.37004 14.3981,1.37004 17.5,1.549991 17.5,1.54999 5.25,0.56368 5.25,0.5636797 v 27.3055993 27.3056 l 1.25,1.03396 1.25,1.03396 3,0.33848 3,0.33849 0.257,143.499997 0.257,143.5 -0.4943,1.29874 -0.4943,1.29874 -7.3078,-5.40438 -7.3078,-5.40438 -7.9549,-4.66037 -7.9549,-4.66037 -9,-3.4429 -9,-3.4429 -8,-1.98425 -8,-1.98424 -9,-1.18436 -9,-1.18435 -14.5,0.53261 -14.5,0.53261 -7.9073,2.09424 -7.9074,2.09424 -7.5686,3.75066 -7.5685,3.75066 -7.4358,7 -7.4357,7 -3.7509,5.7698 -3.7509,5.76979 -3.1602,8.73021 -3.1601,8.7302 -1.6773,7.5 -1.6773,7.5 v 123 123 l 1.839,7 1.839,7 4.3227,9 4.3228,9 5.7185,6.30115 5.7184,6.30115 5.9901,4.0678 5.99,4.0677 5.943,2.41491 5.943,2.4148 8.6868,2.1592 8.6867,2.1591 h 16.5 16.5 l 9,-1.6498 9,-1.6498 8.9945,-2.6081 8.9945,-2.60811 8.4831,-3.9753 8.483,-3.97529 5.0225,-3.16148 5.0224,-3.16147 5.5,-4.12024 5.5,-4.12025 1.25,-0.73555 1.25,-0.73555 v 85.55614 85.55897 l -75.25,-0.083 -75.25,-0.083 z m 174.9847,-430.10188 -0.015,-432.249997 -0.7346,-1.15196 -0.7347,-1.15196 -5,-0.65263 -5,-0.65264 -2.25,-0.46446 -2.25,-0.46445 v -9.2643 -9.26429 l 61.4163,-60.716653 61.4163,-60.71666 h 0.7588 0.7587 l 44.0744,43.75 44.0743,43.75 17.2506,17.031693 17.2505,17.03169 v 6.65321 6.65321 l -0.9041,2.3781 -0.9042,2.37809 -3.8567,1.1555 -3.8567,1.15551 -4.2416,4.32185 -4.2416,4.32185 0.2525,200.709667 0.2524,200.70967 1,-0.0438 1,-0.0438 4.5,-11.20621 4.5,-11.2062 0.263,-147.25 0.2631,-147.249997 h 5.7869 5.787 l 1.2,-1.2 1.2,-1.2 V 17.782843 -8.9581463 l 0.9808,-0.60615 0.9808,-0.6061597 36.7186,-3.38864 36.7187,-3.388631 0.8006,0.49479 0.8005,0.49479 v 30.31854 30.31854 l 1.25,1.03615 1.25,1.03615 27.3052,7.0863 27.3051,7.08629 h 1.4449 1.4448 V 28.482843 -3.9581462 l 0.7936,-0.49046 0.7936,-0.49046 33.8547,8.8623399 33.8547,8.8623393 0.8364,1.31911 0.8364,1.3191 0.015,86.083507 0.015,86.08351 7.9792,5.19708 7.9791,5.19707 6.7709,5.63073 6.7708,5.63072 5.3323,5.08869 5.3323,5.08869 6.2928,7.5 6.2927,7.5 6.6377,9.79354 6.6377,9.79354 5.1222,10.20646 5.1222,10.20646 3.2813,8.5 3.2812,8.5 2.6068,9.27729 2.6067,9.2773 2.1798,11.2227 2.1798,11.22271 0.3169,244.25 0.3168,244.24995 h -65.5196 -65.5196 l -0.01,-219.24995 -0.01,-219.25 -1.4327,-9.50416 -1.4328,-9.50415 -2.556,-7.99585 -2.556,-7.99584 -4.0115,-7.19959 -4.0114,-7.1996 -5.5891,-6.03691 -5.5891,-6.03692 -6.6548,-4.35924 -6.6548,-4.35925 -6.587,-2.58481 -6.5871,-2.58481 -8.2734,-1.56943 -8.2732,-1.56947 h -12.7902 -12.7901 l -11.3494,1.94699 -11.3494,1.94698 -8,2.66422 -8,2.66423 -6.5148,3.38908 -6.5148,3.38908 -6.2487,5.05605 -6.2487,5.05605 -4.9176,7.00248 -4.9177,7.00247 -3.0006,7.2078 -3.0006,7.20781 -2.2761,9.98338 -2.276,9.98338 -0.3239,221.26483 -0.3239,221.26485 -29.7183,-0.2649 -175.8257,0.2352 h -22.3931 z"
           id="path7" />
        <g
           id="g8"
           transform="translate(-2.90075,4.691717)">
          <path
             d="m 1850.1335,66.218701 -7.3298,18.7068 -1.2127,31.500009 -1.2126,31.49999 -1.463,36 -1.4629,36 -1.4437,30.5 -1.4438,30.5 -0.6788,16.25 -0.6788,16.25 h 8.6733 8.6734 l 2.4546,2.4545 2.4545,2.4546 v 8.4729 8.4728 l -2.6349,2.0726 -2.6348,2.0726 h -48.2763 -48.2762 l -2.5932,-3.0767 -2.5889,-3.0768 v -7.0002 -7.0002 l 2.9231,-2.923 2.9231,-2.9231 h 8.6793 8.6794 l -0.6375,-13.25 -0.6375,-13.25 -1.969,-43.5 -1.969,-43.5 -1.9938,-48 -1.9938,-48 v -8.855099 -8.855 l -7.5,-19.9863 -8.6868,-21.331273 c 0,-2.362288 48.2021,-100.517333 55.1274,-114.317623 l 1.0368,-0.6407 1.0367,-0.64081 0.6522,1.81341 0.6521,1.8134 c 23.1629,48.792572 -9.152,-20.47167 53.3204,111.900511 z"
             style="fill:#dca64c"
             id="path1-7" />
        </g>
        <text
           xml:space="preserve"
           id="text8"
           style="font-size:325.333px;writing-mode:lr-tb;direction:ltr;white-space:pre;shape-inside:url(#rect8);fill:#122439;fill-opacity:1"
           transform="matrix(0.16776787,0,0,0.16776787,1565.0528,0.31954867)"><tspan
             x="1214.1426"
             y="353.05831"
             id="tspan2">⬤</tspan></text>
        <g
           id="g10"
           transform="translate(0,-6)">
          <path
             d="m 1850.1335,605.27512 -7.3298,-18.7068 -1.2127,-31.50001 -1.2126,-31.49999 -1.463,-36 -1.4629,-36 -1.4437,-30.5 -1.4438,-30.5 -0.6788,-16.25 -0.6788,-16.25 h 8.6733 8.6734 l 2.4546,-2.4545 2.4545,-2.4546 v -8.4729 -8.4728 l -2.6349,-2.0726 -2.6348,-2.0726 h -48.2763 -48.2762 l -2.5932,3.0767 -2.5889,3.0768 v 7.0002 7.0002 l 2.9231,2.923 2.9231,2.9231 h 8.6793 8.6794 l -0.6375,13.25 -0.6375,13.25 -1.969,43.5 -1.969,43.5 -1.9938,48 -1.9938,48 v 8.8551 8.855 l -7.5,19.9863 -8.6868,21.33128 c 0,2.36228 48.2021,100.51733 55.1274,114.31762 l 1.0368,0.6407 1.0367,0.64081 0.6522,-1.81341 0.6521,-1.8134 c 23.1629,-48.79257 -9.152,20.47167 53.3204,-111.90051 z"
             style="fill:#dca64c"
             id="path1-7-3"
             transform="translate(-2.9008,4.69172)" />
          <text
             xml:space="preserve"
             id="text8-8"
             style="font-size:325.333px;writing-mode:lr-tb;direction:ltr;white-space:pre;shape-inside:url(#rect8-9);display:inline;fill:#122439;fill-opacity:1"
             transform="translate(520.09516,510.71475)"><tspan
               x="1214.1426"
               y="353.05831"
               id="tspan3">`</tspan></text>
        </g>
      </g>
    </g>
  </g>
</svg>
